<svg width="328" height="554" viewBox="0 0 328 554" fill="none" xmlns="http://www.w3.org/2000/svg">
<circle cx="262.891" cy="190.5" r="59.5" fill="#2B44FF" fill-opacity="0.2"/>
<path fill-rule="evenodd" clip-rule="evenodd" d="M114.359 135.483C111.435 147.928 119.524 175.341 127.593 175.264C130.81 175.233 136.713 171.615 142.186 165.934L145.851 195.999L170.038 189.518L151.317 152.956C154.501 146.263 155.855 138.744 153.325 131.403C146.035 110.25 117.284 123.037 114.359 135.483Z" fill="#997659"/>
<path fill-rule="evenodd" clip-rule="evenodd" d="M116.123 113.272C110.558 114.763 107.254 120.482 108.745 126.046C110.187 131.426 115.585 134.691 120.973 133.55C124.262 133.673 128.351 133.315 132.758 132.445C132.761 134.138 133.013 135.994 133.557 138.023C134.037 139.815 134.744 141.662 135.625 143.493C136.265 142.125 137.325 141.061 138.6 140.719C142.165 139.764 145.432 142.031 146.266 145.143C147.325 149.093 145.809 152.562 142.54 153.683C147.081 158.634 152.39 161.857 156.534 160.746C164.406 158.637 167.184 146.618 164.153 135.308C164.047 134.911 163.933 134.518 163.813 134.131C167.27 135.351 170.674 137.316 174.113 139.227L175.024 139.73C181.1 143.071 187.308 146.022 194.121 144.197C209.11 140.18 206.966 108.365 186.024 113.976C171.781 117.792 165.332 121.745 160.117 126.432C158.026 123.395 155.454 121.06 152.705 119.685C152.009 119.226 151.033 118.87 149.83 118.62C149.09 118.441 148.347 118.333 147.604 118.301C143.604 117.94 138.08 118.41 132.136 119.782C131.025 120.038 129.942 120.317 128.892 120.613C127.388 115.069 121.679 111.783 116.123 113.272Z" fill="#191847"/>
<path fill-rule="evenodd" clip-rule="evenodd" d="M186.757 281.707L109.23 411.261L51.108 520.789H38.589L135.974 281.707L186.757 281.707Z" fill="#BA8B72"/>
<path fill-rule="evenodd" clip-rule="evenodd" d="M58.7615 515.729C59.9296 518.846 60.5137 521.177 60.5137 522.724C60.5137 524.605 60.2002 527.349 59.5734 530.957C57.3908 530.957 37.7755 530.957 0.727486 530.957C-0.801712 525.904 0.081028 523.176 3.37571 522.773C6.67038 522.37 9.40733 522.006 11.5865 521.681L38.9382 509.493C39.4643 509.258 40.0808 509.495 40.3153 510.021C40.3192 510.03 40.3231 510.039 40.3268 510.048L42.0851 514.311C45.1351 515.734 47.6135 516.445 49.5204 516.445C51.0702 516.445 53.2107 515.819 55.9419 514.567L55.9415 514.566C56.9891 514.087 58.2267 514.548 58.7058 515.596C58.7258 515.64 58.7446 515.684 58.7615 515.729Z" fill="#E4E4E4"/>
<path fill-rule="evenodd" clip-rule="evenodd" d="M67.2505 503.251L43.1077 495.95C53.6853 464.342 66.6497 429.559 82.0008 391.6C97.3519 353.642 113.838 317.01 131.46 281.707H199.648C180.057 326.364 159.287 366.941 137.339 403.438C115.39 439.935 92.0278 473.206 67.2505 503.251Z" fill="#DB2721"/>
<path fill-rule="evenodd" clip-rule="evenodd" d="M191.852 281.707C199.169 327.233 213.282 385.398 214.613 387.193C215.501 388.39 247.466 399.096 310.507 419.313L307.803 430.347C232.626 419.505 193.015 411.094 188.968 405.112C182.898 396.14 152.589 325.261 140.85 281.707H191.852Z" fill="#997659"/>
<path fill-rule="evenodd" clip-rule="evenodd" d="M288.347 409.774L283.583 427.546C227.356 432.476 192.904 428.914 180.228 416.861C167.552 404.808 153.105 359.756 136.887 281.707H201.908C212.183 345.619 217.928 378.916 219.142 381.599C220.356 384.282 243.424 393.674 288.347 409.774Z" fill="#FF4133"/>
<path fill-rule="evenodd" clip-rule="evenodd" d="M307.413 414.704C310.685 414.095 313.082 413.925 314.606 414.193C316.458 414.52 319.106 415.305 322.55 416.549C322.171 418.698 318.765 438.016 312.332 474.501C307.09 475.129 304.556 473.786 304.732 470.472C304.907 467.157 305.024 464.398 305.083 462.196L297.829 433.143C297.689 432.584 298.029 432.018 298.588 431.879C298.598 431.876 298.607 431.874 298.617 431.872L303.12 430.881C305.051 428.124 306.182 425.807 306.513 423.929C306.782 422.403 306.537 420.186 305.779 417.279L305.778 417.279C305.488 416.164 306.157 415.026 307.272 414.736C307.318 414.724 307.366 414.713 307.413 414.704Z" fill="#E4E4E4"/>
<path fill-rule="evenodd" clip-rule="evenodd" d="M94.6185 273.416L66.0862 303.251C57.6197 307.216 50.7191 311.508 45.3843 316.128C44.2018 317.66 42.9574 320.558 48.7209 319.079C54.4845 317.6 60.6134 316.303 61.7709 318.153C62.9284 320.003 59.8128 323.009 61.9164 325.409C63.3189 327.009 67.6593 321.612 74.9376 309.216L105.021 290.041L94.6185 273.416ZM241.17 237.249C264.272 273.755 277.488 293.602 280.817 296.789C283.259 299.126 296.805 303.997 305.818 306.316C309.436 307.247 309.163 310.223 308.315 311.295C301.417 320.018 293.198 315.662 284.196 314.883C274.333 314.029 279.078 324.846 271.303 324.288C271.681 318.942 273.366 308.636 269.051 303.842C267.133 301.711 252 281.668 223.652 243.713L241.17 237.249Z" fill="#997659"/>
<path fill-rule="evenodd" clip-rule="evenodd" d="M138.782 177.641C129.044 211.992 113.667 246.012 87.4452 277.38C83.1744 277.821 78.7111 279.328 74.0859 281.851C71.8097 283.093 70.9712 285.944 72.2131 288.219C72.9341 289.54 74.198 290.376 75.5767 290.602C74.7582 291.455 73.9291 292.304 73.0909 293.152L84.3342 308.566C116.07 285.091 146.468 266.25 156.321 234.994C158.515 228.038 155.978 211.473 153.549 197.615L153.203 195.655C152.745 193.07 152.298 190.604 151.898 188.343L151.701 187.23C151.221 184.492 150.82 182.096 150.565 180.208L138.782 177.641Z" fill="#69A1AC"/>
<path fill-rule="evenodd" clip-rule="evenodd" d="M208.631 283.79C176.954 293.033 151.528 297.516 132.354 297.24C129.979 297.205 128.334 287.285 128.923 284.393C138.093 239.352 143.574 206.598 138.416 177.346C141.741 178.399 147.113 177.698 154.53 175.242C180.306 201.779 195.81 234.708 208.631 283.79Z" fill="#191847"/>
<path fill-rule="evenodd" clip-rule="evenodd" d="M150.655 173.385C162.114 218.257 132.101 325.925 163.553 407.812C195.252 409.242 235.058 380.383 280.424 389.833C275.977 370.008 260.887 349.951 245.396 329.968L242.66 326.442C232.589 313.466 222.603 300.528 215.511 287.712C216.386 286.54 216.698 284.983 216.233 283.499L216.164 283.295L215.092 280.355C214.367 278.364 212.434 277.161 210.421 277.274C209.802 275.794 209.235 274.315 208.721 272.839C206.211 265.624 205.598 258.16 205.071 250.762L204.959 249.178C204.616 244.329 204.255 239.518 203.364 234.835C222.37 246.01 241.482 267.727 260.699 299.984L279.098 290.854C277.873 288.235 276.627 285.654 275.36 283.111C277.376 281.448 278.966 275.155 276.91 274.511C274.787 273.847 272.601 273.501 270.357 273.466C243.118 223.034 207.112 188.987 162.34 171.325L150.655 173.385Z" fill="#89C5CC"/>
<path fill-rule="evenodd" clip-rule="evenodd" d="M158.277 173.1L166.451 188.46L157.93 202.557L169.27 210.456L152.974 254.517L174.487 209.618L163.304 201.61L170.877 189.144L158.277 173.1Z" fill="black" fill-opacity="0.1"/>
<path fill-rule="evenodd" clip-rule="evenodd" d="M162.536 268.716C160.266 269.116 158.102 267.601 157.702 265.332C157.302 263.064 158.817 260.9 161.087 260.5C163.357 260.099 165.522 261.614 165.922 263.883C166.322 266.152 164.806 268.316 162.536 268.716ZM161.564 293.244C159.294 293.644 157.13 292.129 156.73 289.86C156.33 287.591 157.845 285.428 160.115 285.028C162.385 284.627 164.549 286.142 164.949 288.411C165.349 290.68 163.834 292.844 161.564 293.244ZM164.702 317.047C162.432 317.447 160.267 315.932 159.867 313.664C159.467 311.395 160.983 309.231 163.253 308.831C165.523 308.43 167.687 309.945 168.087 312.214C168.487 314.483 166.971 316.647 164.702 317.047Z" fill="black" fill-opacity="0.4"/>
</svg>
